name Run_20002_GRF.mot
datacolumns 19
datarows 10
range 1.754 1.763
endheader
time	     ground_force_vx	     ground_force_vy	     ground_force_vz	     ground_force_px	     ground_force_py	     ground_force_pz	   l_ground_force_vx	   l_ground_force_vy	   l_ground_force_vz	   l_ground_force_px	   l_ground_force_py	   l_ground_force_pz	     ground_torque_x	     ground_torque_y	     ground_torque_z	   l_ground_torque_x	   l_ground_torque_y	   l_ground_torque_z	
1.754	          0.00000000	          0.00000000	          0.00000000	          0.00000000	          0.00000000	          0.00000000	          0.00000000	          0.00000000	          0.00000000	          0.00000000	          0.00000000	          0.00000000	          0.00000000	          0.00000000	          0.00000000	          0.00000000	          0.00000000	          0.00000000	
1.755	        -11.73293200	         28.65205600	         -7.55745700	          1.06240200	          0.00000000	         -0.28038600	          0.00000000	          0.00000000	          0.00000000	          0.00000000	          0.00000000	          0.00000000	          0.00000000	          0.50425100	          0.00000000	          0.00000000	          0.00000000	          0.00000000	
1.756	        -12.85688000	         32.53554500	         -8.25459600	          1.06294700	          0.00000000	         -0.28117900	          0.00000000	          0.00000000	          0.00000000	          0.00000000	          0.00000000	          0.00000000	          0.00000000	          0.67706100	          0.00000000	          0.00000000	          0.00000000	          0.00000000	
1.757	        -14.01603000	         36.84793500	         -8.99328000	          1.06344700	          0.00000000	         -0.28193800	          0.00000000	          0.00000000	          0.00000000	          0.00000000	          0.00000000	          0.00000000	          0.00000000	          0.85458500	          0.00000000	          0.00000000	          0.00000000	          0.00000000	
1.758	        -15.19864200	         41.62055600	         -9.77421000	          1.06390400	          0.00000000	         -0.28266600	          0.00000000	          0.00000000	          0.00000000	          0.00000000	          0.00000000	          0.00000000	          0.00000000	          1.03631600	          0.00000000	          0.00000000	          0.00000000	          0.00000000	
1.759	        -16.39107300	         46.88523900	        -10.59779500	          1.06431600	          0.00000000	         -0.28336200	          0.00000000	          0.00000000	          0.00000000	          0.00000000	          0.00000000	          0.00000000	          0.00000000	          1.22171600	          0.00000000	          0.00000000	          0.00000000	          0.00000000	
1.76	        -17.57790200	         52.67412600	        -11.46412800	          1.06468100	          0.00000000	         -0.28402900	          0.00000000	          0.00000000	          0.00000000	          0.00000000	          0.00000000	          0.00000000	          0.00000000	          1.41021800	          0.00000000	          0.00000000	          0.00000000	          0.00000000	
1.761	        -18.74210700	         59.01948200	        -12.37294900	          1.06499500	          0.00000000	         -0.28466900	          0.00000000	          0.00000000	          0.00000000	          0.00000000	          0.00000000	          0.00000000	          0.00000000	          1.60123000	          0.00000000	          0.00000000	          0.00000000	          0.00000000	
1.762	        -19.86533200	         65.95348400	        -13.32361900	          1.06525500	          0.00000000	         -0.28528300	          0.00000000	          0.00000000	          0.00000000	          0.00000000	          0.00000000	          0.00000000	          0.00000000	          1.79413400	          0.00000000	          0.00000000	          0.00000000	          0.00000000	
1.763	        -20.92822600	         73.50803400	        -14.31508400	          1.06545700	          0.00000000	         -0.28587500	          0.00000000	          0.00000000	          0.00000000	          0.00000000	          0.00000000	          0.00000000	          0.00000000	          1.98829100	          0.00000000	          0.00000000	          0.00000000	          0.00000000	
